<svg xmlns="http://www.w3.org/2000/svg" version="1.1" xmlns:xlink="http://www.w3.org/1999/xlink" xmlns:svgjs="http://svgjs.dev/svgjs" width="100" height="100" viewBox="0 0 2000 1999"><g transform="matrix(1,0,0,1,-0.4314868804665366,-0.4312711370263287)"><svg viewBox="0 0 343 343" data-background-color="#e9efe7" preserveAspectRatio="xMidYMid meet" height="1999" width="2000" xmlns="http://www.w3.org/2000/svg" xmlns:xlink="http://www.w3.org/1999/xlink"><g id="tight-bounds" transform="matrix(1,0,0,1,0.07400000000001228,0.07400000000001228)"><svg viewBox="0 0 342.8515585177538 342.8515585177538" height="342.8515585177538" width="342.8515585177538"><g><svg></svg></g><g><svg viewBox="0 0 342.8515585177538 342.8515585177538" height="342.8515585177538" width="342.8515585177538"><g><path d="M0 171.426c0-94.676 76.75-171.426 171.426-171.426 94.676 0 171.426 76.75 171.426 171.426 0 94.676-76.75 171.426-171.426 171.426-94.676 0-171.426-76.75-171.426-171.426zM171.426 339.768c92.973 0 168.342-75.369 168.342-168.342 0-92.973-75.369-168.342-168.342-168.342-92.973 0-168.342 75.369-168.342 168.342 0 92.973 75.369 168.342 168.342 168.342z" data-fill-palette-color="tertiary" fill="#0d1538" stroke="transparent"></path><ellipse rx="164.56874808852183" ry="164.56874808852183" cx="171.4257792588769" cy="171.4257792588769" fill="#0d1538" stroke="transparent" stroke-width="0" fill-opacity="1" data-fill-palette-color="tertiary"></ellipse></g><g transform="matrix(1,0,0,1,64.84655864529836,100.54107584185782)"><svg viewBox="0 0 213.15844122715708 141.76940683403816" height="141.76940683403816" width="213.15844122715708"><g><svg viewBox="0 0 213.15844122715708 141.76940683403816" height="141.76940683403816" width="213.15844122715708"><g><svg viewBox="0 0 213.15844122715714 141.7694068340382" height="141.76940683403816" width="213.15844122715708"><g transform="matrix(1,0,0,1,0,78.36387081449803)"><svg viewBox="0 0 213.15844122715714 63.40553601954015" height="63.40553601954015" width="213.15844122715714"><g id="textblocktransform"><svg viewBox="0 0 213.15844122715714 63.40553601954015" height="63.40553601954015" width="213.15844122715714" id="textblock"><g><svg viewBox="0 0 213.15844122715714 34.19791638505657" height="34.19791638505657" width="213.15844122715714"><g transform="matrix(1,0,0,1,0,0)"><svg width="213.15844122715714" viewBox="4.91 -36.69 303.56 48.7" height="34.19791638505657" data-palette-color="#e9efe7"><path d="M24.8-3.71L24.8 0 4.91 0 4.91-35.69 24.8-35.69 24.8-32.01 9.06-32.01 9.06-20.51 23.85-20.51 23.85-16.85 9.06-16.85 9.06-3.71 24.8-3.71ZM28.76 0L38.55-13.7 29.25-26.76 33.86-26.76 40.92-16.5 47.95-26.76 52.51-26.76 43.21-13.7 53 0 48.41 0 40.92-10.84 33.35 0 28.76 0ZM70.75 0.49L70.75 0.49Q68.13 0.49 65.97-0.48 63.81-1.44 62.35-3.44L62.35-3.44 62.06-3.44Q62.35-1.1 62.35 1L62.35 1 62.35 12.01 58.3 12.01 58.3-26.76 61.59-26.76 62.15-23.1 62.35-23.1Q63.91-25.29 65.99-26.27 68.06-27.25 70.75-27.25L70.75-27.25Q76.07-27.25 78.96-23.61 81.86-19.97 81.86-13.4L81.86-13.4Q81.86-6.81 78.91-3.16 75.97 0.49 70.75 0.49ZM70.16-23.8L70.16-23.8Q66.06-23.8 64.23-21.53 62.4-19.26 62.35-14.31L62.35-14.31 62.35-13.4Q62.35-7.76 64.23-5.33 66.11-2.91 70.26-2.91L70.26-2.91Q73.73-2.91 75.69-5.71 77.66-8.52 77.66-13.45L77.66-13.45Q77.66-18.46 75.69-21.13 73.73-23.8 70.16-23.8ZM100.24 0.49L100.24 0.49Q94.3 0.49 90.87-3.13 87.44-6.74 87.44-13.16L87.44-13.16Q87.44-19.63 90.63-23.44 93.82-27.25 99.19-27.25L99.19-27.25Q104.22-27.25 107.15-23.94 110.08-20.63 110.08-15.21L110.08-15.21 110.08-12.65 91.64-12.65Q91.76-7.93 94.02-5.49 96.28-3.05 100.38-3.05L100.38-3.05Q104.7-3.05 108.93-4.86L108.93-4.86 108.93-1.25Q106.78-0.32 104.86 0.09 102.95 0.49 100.24 0.49ZM99.14-23.85L99.14-23.85Q95.92-23.85 94-21.75 92.08-19.65 91.74-15.94L91.74-15.94 105.73-15.94Q105.73-19.78 104.02-21.81 102.31-23.85 99.14-23.85ZM129.19-27.25L129.19-27.25Q130.97-27.25 132.39-26.95L132.39-26.95 131.83-23.19Q130.17-23.56 128.9-23.56L128.9-23.56Q125.65-23.56 123.34-20.92 121.03-18.29 121.03-14.36L121.03-14.36 121.03 0 116.98 0 116.98-26.76 120.33-26.76 120.79-21.8 120.99-21.8Q122.48-24.41 124.57-25.83 126.67-27.25 129.19-27.25ZM146.03-2.86L146.03-2.86Q147.11-2.86 148.11-3.02 149.11-3.17 149.69-3.34L149.69-3.34 149.69-0.24Q149.04 0.07 147.75 0.28 146.47 0.49 145.45 0.49L145.45 0.49Q137.68 0.49 137.68-7.69L137.68-7.69 137.68-23.61 133.85-23.61 133.85-25.56 137.68-27.25 139.39-32.96 141.74-32.96 141.74-26.76 149.5-26.76 149.5-23.61 141.74-23.61 141.74-7.86Q141.74-5.44 142.88-4.15 144.03-2.86 146.03-2.86ZM209.33-35.69L199.79 0 195.69 0 188.48-23.9Q187.97-25.49 187.34-27.91 186.7-30.32 186.68-30.81L186.68-30.81Q186.14-27.59 184.97-23.75L184.97-23.75 177.99 0 173.88 0 164.39-35.69 168.78-35.69 174.42-13.65Q175.59-9.01 176.13-5.25L176.13-5.25Q176.79-9.72 178.08-13.99L178.08-13.99 184.48-35.69 188.87-35.69 195.59-13.79Q196.76-10.01 197.57-5.25L197.57-5.25Q198.03-8.72 199.32-13.7L199.32-13.7 204.94-35.69 209.33-35.69ZM226.52-27.25L226.52-27.25Q228.3-27.25 229.72-26.95L229.72-26.95 229.15-23.19Q227.49-23.56 226.23-23.56L226.23-23.56Q222.98-23.56 220.67-20.92 218.36-18.29 218.36-14.36L218.36-14.36 218.36 0 214.31 0 214.31-26.76 217.66-26.76 218.12-21.8 218.31-21.8Q219.8-24.41 221.9-25.83 224-27.25 226.52-27.25ZM238.77-26.76L238.77 0 234.72 0 234.72-26.76 238.77-26.76ZM234.38-34.01L234.38-34.01Q234.38-35.4 235.06-36.05 235.74-36.69 236.77-36.69L236.77-36.69Q237.75-36.69 238.45-36.04 239.16-35.38 239.16-34.01L239.16-34.01Q239.16-32.64 238.45-31.97 237.75-31.3 236.77-31.3L236.77-31.3Q235.74-31.3 235.06-31.97 234.38-32.64 234.38-34.01ZM256.01-2.86L256.01-2.86Q257.08-2.86 258.08-3.02 259.08-3.17 259.67-3.34L259.67-3.34 259.67-0.24Q259.01 0.07 257.73 0.28 256.44 0.49 255.42 0.49L255.42 0.49Q247.66 0.49 247.66-7.69L247.66-7.69 247.66-23.61 243.82-23.61 243.82-25.56 247.66-27.25 249.36-32.96 251.71-32.96 251.71-26.76 259.47-26.76 259.47-23.61 251.71-23.61 251.71-7.86Q251.71-5.44 252.86-4.15 254-2.86 256.01-2.86ZM276.32 0.49L276.32 0.49Q270.38 0.49 266.95-3.13 263.52-6.74 263.52-13.16L263.52-13.16Q263.52-19.63 266.71-23.44 269.89-27.25 275.27-27.25L275.27-27.25Q280.29-27.25 283.22-23.94 286.15-20.63 286.15-15.21L286.15-15.21 286.15-12.65 267.72-12.65Q267.84-7.93 270.1-5.49 272.36-3.05 276.46-3.05L276.46-3.05Q280.78-3.05 285.01-4.86L285.01-4.86 285.01-1.25Q282.86-0.32 280.94 0.09 279.03 0.49 276.32 0.49ZM275.22-23.85L275.22-23.85Q271.99-23.85 270.08-21.75 268.16-19.65 267.82-15.94L267.82-15.94 281.81-15.94Q281.81-19.78 280.1-21.81 278.39-23.85 275.22-23.85ZM305.27-27.25L305.27-27.25Q307.05-27.25 308.47-26.95L308.47-26.95 307.9-23.19Q306.24-23.56 304.97-23.56L304.97-23.56Q301.73-23.56 299.42-20.92 297.11-18.29 297.11-14.36L297.11-14.36 297.11 0 293.06 0 293.06-26.76 296.41-26.76 296.87-21.8 297.06-21.8Q298.55-24.41 300.65-25.83 302.75-27.25 305.27-27.25Z" opacity="1" transform="matrix(1,0,0,1,0,0)" fill="#e9efe7" class="wordmark-text-0" data-fill-palette-color="quaternary" id="text-0"></path></svg></g></svg></g><g transform="matrix(1,0,0,1,0,42.27122369357519)"><svg viewBox="0 0 213.15844122715714 21.134312325964963" height="21.134312325964963" width="213.15844122715714"><g transform="matrix(1,0,0,1,0,0)"><svg width="213.15844122715714" viewBox="4.3 -37.99 504.28999999999996 50.00000000000001" height="21.134312325964963" data-palette-color="#e9efe7"><path d="M16.75 0.49L16.75 0.49Q14.14 0.49 11.98-0.48 9.81-1.44 8.35-3.44L8.35-3.44 8.06-3.44Q8.35-1.1 8.35 1L8.35 1 8.35 12.01 4.3 12.01 4.3-26.76 7.59-26.76 8.15-23.1 8.35-23.1Q9.91-25.29 11.99-26.27 14.06-27.25 16.75-27.25L16.75-27.25Q22.07-27.25 24.96-23.61 27.86-19.97 27.86-13.4L27.86-13.4Q27.86-6.81 24.91-3.16 21.97 0.49 16.75 0.49ZM16.16-23.8L16.16-23.8Q12.06-23.8 10.23-21.53 8.4-19.26 8.35-14.31L8.35-14.31 8.35-13.4Q8.35-7.76 10.23-5.33 12.11-2.91 16.26-2.91L16.26-2.91Q19.73-2.91 21.69-5.71 23.66-8.52 23.66-13.45L23.66-13.45Q23.66-18.46 21.69-21.13 19.73-23.8 16.16-23.8ZM54.81-27.25L54.81-27.25Q56.59-27.25 58-26.95L58-26.95 57.44-23.19Q55.78-23.56 54.51-23.56L54.51-23.56Q51.27-23.56 48.96-20.92 46.65-18.29 46.65-14.36L46.65-14.36 46.65 0 42.6 0 42.6-26.76 45.94-26.76 46.41-21.8 46.6-21.8Q48.09-24.41 50.19-25.83 52.29-27.25 54.81-27.25ZM119.81-35.69L119.81 0 115.08 0 95.57-29.96 95.38-29.96Q95.77-24.68 95.77-20.29L95.77-20.29 95.77 0 91.93 0 91.93-35.69 96.62-35.69 116.08-5.86 116.27-5.86Q116.23-6.52 116.05-10.1 115.88-13.67 115.93-15.21L115.93-15.21 115.93-35.69 119.81-35.69ZM156.14 0L153.14 0 152.33-3.81 152.13-3.81Q150.13-1.29 148.14-0.4 146.15 0.49 143.17 0.49L143.17 0.49Q139.2 0.49 136.94-1.56 134.68-3.61 134.68-7.4L134.68-7.4Q134.68-15.5 147.64-15.89L147.64-15.89 152.18-16.04 152.18-17.7Q152.18-20.85 150.83-22.35 149.47-23.85 146.5-23.85L146.5-23.85Q143.15-23.85 138.93-21.8L138.93-21.8 137.68-24.9Q139.66-25.98 142.02-26.59 144.37-27.2 146.74-27.2L146.74-27.2Q151.52-27.2 153.83-25.07 156.14-22.95 156.14-18.26L156.14-18.26 156.14 0ZM143.98-2.86L143.98-2.86Q147.76-2.86 149.93-4.93 152.09-7.01 152.09-10.74L152.09-10.74 152.09-13.16 148.03-12.99Q143.2-12.82 141.06-11.49 138.93-10.16 138.93-7.35L138.93-7.35Q138.93-5.15 140.26-4 141.59-2.86 143.98-2.86ZM180.79-2.86L180.79-2.86Q181.87-2.86 182.87-3.02 183.87-3.17 184.46-3.34L184.46-3.34 184.46-0.24Q183.8 0.07 182.51 0.28 181.23 0.49 180.21 0.49L180.21 0.49Q172.44 0.49 172.44-7.69L172.44-7.69 172.44-23.61 168.61-23.61 168.61-25.56 172.44-27.25 174.15-32.96 176.5-32.96 176.5-26.76 184.26-26.76 184.26-23.61 176.5-23.61 176.5-7.86Q176.5-5.44 177.64-4.15 178.79-2.86 180.79-2.86ZM216.92 0L213.92 0 213.11-3.81 212.92-3.81Q210.92-1.29 208.93-0.4 206.94 0.49 203.96 0.49L203.96 0.49Q199.98 0.49 197.72-1.56 195.46-3.61 195.46-7.4L195.46-7.4Q195.46-15.5 208.43-15.89L208.43-15.89 212.97-16.04 212.97-17.7Q212.97-20.85 211.61-22.35 210.26-23.85 207.28-23.85L207.28-23.85Q203.93-23.85 199.71-21.8L199.71-21.8 198.47-24.9Q200.44-25.98 202.8-26.59 205.16-27.2 207.52-27.2L207.52-27.2Q212.31-27.2 214.62-25.07 216.92-22.95 216.92-18.26L216.92-18.26 216.92 0ZM204.76-2.86L204.76-2.86Q208.55-2.86 210.71-4.93 212.87-7.01 212.87-10.74L212.87-10.74 212.87-13.16 208.82-12.99Q203.98-12.82 201.85-11.49 199.71-10.16 199.71-7.35L199.71-7.35Q199.71-5.15 201.04-4 202.37-2.86 204.76-2.86ZM250.2-7.3L250.2-7.3Q250.2-3.56 247.41-1.54 244.63 0.49 239.6 0.49L239.6 0.49Q234.28 0.49 231.3-1.2L231.3-1.2 231.3-4.96Q233.23-3.98 235.44-3.42 237.65-2.86 239.7-2.86L239.7-2.86Q242.87-2.86 244.58-3.87 246.29-4.88 246.29-6.96L246.29-6.96Q246.29-8.52 244.93-9.63 243.58-10.74 239.65-12.26L239.65-12.26Q235.91-13.65 234.34-14.69 232.76-15.72 232-17.04 231.23-18.36 231.23-20.19L231.23-20.19Q231.23-23.46 233.89-25.35 236.55-27.25 241.19-27.25L241.19-27.25Q245.51-27.25 249.63-25.49L249.63-25.49 248.19-22.19Q244.17-23.85 240.89-23.85L240.89-23.85Q238.01-23.85 236.55-22.95 235.08-22.05 235.08-20.46L235.08-20.46Q235.08-19.38 235.63-18.63 236.18-17.87 237.4-17.19 238.62-16.5 242.09-15.21L242.09-15.21Q246.85-13.48 248.52-11.72 250.2-9.96 250.2-7.3ZM286.81 0L282.76 0 282.76-17.31Q282.76-20.58 281.27-22.19 279.78-23.8 276.61-23.8L276.61-23.8Q272.38-23.8 270.44-21.51 268.5-19.21 268.5-13.99L268.5-13.99 268.5 0 264.45 0 264.45-37.99 268.5-37.99 268.5-26.49Q268.5-24.41 268.31-23.05L268.31-23.05 268.55-23.05Q269.75-24.98 271.96-26.09 274.17-27.2 277-27.2L277-27.2Q281.91-27.2 284.36-24.87 286.81-22.53 286.81-17.46L286.81-17.46 286.81 0ZM322.26 0L319.26 0 318.45-3.81 318.26-3.81Q316.25-1.29 314.26-0.4 312.27 0.49 309.3 0.49L309.3 0.49Q305.32 0.49 303.06-1.56 300.8-3.61 300.8-7.4L300.8-7.4Q300.8-15.5 313.76-15.89L313.76-15.89 318.3-16.04 318.3-17.7Q318.3-20.85 316.95-22.35 315.59-23.85 312.62-23.85L312.62-23.85Q309.27-23.85 305.05-21.8L305.05-21.8 303.8-24.9Q305.78-25.98 308.14-26.59 310.49-27.2 312.86-27.2L312.86-27.2Q317.65-27.2 319.95-25.07 322.26-22.95 322.26-18.26L322.26-18.26 322.26 0ZM310.1-2.86L310.1-2.86Q313.89-2.86 316.05-4.93 318.21-7.01 318.21-10.74L318.21-10.74 318.21-13.16 314.15-12.99Q309.32-12.82 307.18-11.49 305.05-10.16 305.05-7.35L305.05-7.35Q305.05-5.15 306.38-4 307.71-2.86 310.1-2.86ZM370.42-20.19L385.31 0 380.43 0 367.42-17.31 363.68-13.99 363.68 0 359.53 0 359.53-35.69 363.68-35.69 363.68-17.99 379.87-35.69 384.78-35.69 370.42-20.19ZM420.37-13.4L420.37-13.4Q420.37-6.86 417.07-3.19 413.78 0.49 407.97 0.49L407.97 0.49Q404.38 0.49 401.59-1.2 398.81-2.88 397.3-6.03 395.78-9.18 395.78-13.4L395.78-13.4Q395.78-19.95 399.06-23.6 402.33-27.25 408.14-27.25L408.14-27.25Q413.75-27.25 417.06-23.51 420.37-19.78 420.37-13.4ZM399.98-13.4L399.98-13.4Q399.98-8.28 402.03-5.59 404.09-2.91 408.06-2.91L408.06-2.91Q412.04-2.91 414.11-5.58 416.17-8.25 416.17-13.4L416.17-13.4Q416.17-18.51 414.11-21.15 412.04-23.8 408.02-23.8L408.02-23.8Q404.04-23.8 402.01-21.19 399.98-18.58 399.98-13.4ZM452.25-3.15L452.25 0 432.84 0 432.84-2.76 447.44-23.61 433.74-23.61 433.74-26.76 451.88-26.76 451.88-23.61 437.48-3.15 452.25-3.15ZM465.89-26.76L470-26.76 470-9.4Q470-6.13 471.49-4.52 472.97-2.91 476.15-2.91L476.15-2.91Q480.35-2.91 482.29-5.2 484.23-7.5 484.23-12.7L484.23-12.7 484.23-26.76 488.28-26.76 488.28 0 484.94 0 484.35-3.59 484.13-3.59Q482.89-1.61 480.68-0.56 478.47 0.49 475.64 0.49L475.64 0.49Q470.75 0.49 468.32-1.83 465.89-4.15 465.89-9.25L465.89-9.25 465.89-26.76ZM508.59-37.99L508.59 0 504.54 0 504.54-37.99 508.59-37.99Z" opacity="1" transform="matrix(1,0,0,1,0,0)" fill="#e9efe7" class="slogan-text-1" data-fill-palette-color="quaternary" id="text-1"></path></svg></g></svg></g></svg></g></svg></g><g transform="matrix(1,0,0,1,40.71326227438702,0)"><svg viewBox="0 0 131.7319166783831 70.2905635059794" height="70.2905635059794" width="131.7319166783831"><g><svg xmlns="http://www.w3.org/2000/svg" xmlns:xlink="http://www.w3.org/1999/xlink" version="1.1" x="0" y="0" viewBox="4.9995 25.988 90.00025000000001 48.02304898989702" enable-background="new 0 0 100 100" xml:space="preserve" height="70.2905635059794" width="131.7319166783831" class="icon-icon-0" data-fill-palette-color="quaternary" id="icon-0"><path d="M94.171 34.842l-42.16-8.683c-1.106-0.228-2.915-0.228-4.021 0L5.829 34.842c-1.106 0.228-1.106 0.6 0 0.828l10.968 2.259c-0.055 0.133-0.094 0.257-0.106 0.352-0.003 0.022-0.013 0.044-0.013 0.066v20.626c-0.695 0.232-1.102 0.843-1.102 1.569 0 0.613 0.338 1.143 0.83 1.435-0.187 2.383-0.872 11.424-0.593 11.821 0.321 0.457 0.597 0.066 0.826-0.13 0.229-0.196 0.551 0.228 0.872 0.228 0.32 0 0.596-0.457 0.779-0.294 0.183 0.163 1.146 0.294 1.055 0.066-0.084-0.209-0.168-8.969-1.087-11.791 0.407-0.305 0.821-0.787 0.821-1.335 0-0.743-0.314-1.365-1.009-1.583v-20.56c0-0.041-0.01-0.12 0.016-0.205l6.826 1.406v16.497c0 1.129 0.924 2.052 2.052 2.052 0 0 12.401-1.92 22.812-1.92 10.411 0 22.812 1.92 22.812 1.92 1.129 0 2.052-0.924 2.052-2.052V39.692l19.531-4.022C95.276 35.443 95.276 35.07 94.171 34.842z" fill="#e9efe7" data-fill-palette-color="quaternary"></path></svg></g></svg></g><g></g></svg></g></svg></g></svg></g></svg></g><defs></defs></svg><rect width="342.8515585177538" height="342.8515585177538" fill="none" stroke="none" visibility="hidden"></rect></g></svg></g></svg>